<svg xmlns="http://www.w3.org/2000/svg" height="48" fill="#848484" viewBox="0 96 960 960" width="48"><path d="M171.652 1007.52q-34.372 0-59.055-25.114-24.684-25.115-24.684-58.058V318.392h83.739v605.956h475.956v83.172H171.652Zm147.131-147.129q-34.139 0-58.657-25.232-24.517-25.232-24.517-57.942V225.652q0-32.943 24.517-58.058 24.518-25.116 58.657-25.116h430.565q33.734 0 58.737 25.116 25.002 25.115 25.002 58.058v551.565q0 32.71-25.002 57.942-25.003 25.232-58.737 25.232H318.783Zm0-83.174h430.565V225.652H318.783v551.565Zm0 0V225.652v551.565Z"/></svg>
