<svg xmlns="http://www.w3.org/2000/svg" height="48" fill="#848484" viewBox="0 96 960 960" width="48"><path d="M144.348 914.957q-33.501 0-58.338-25.233-24.836-25.232-24.836-57.942V320.218q0-32.943 24.836-58.342 24.837-25.398 58.338-25.398h671.304q33.734 0 58.737 25.398 25.002 25.399 25.002 58.342v511.564q0 32.71-25.002 57.942-25.003 25.233-58.737 25.233H144.348ZM480 615.174 144.348 392.609v439.173h671.304V392.609L480 615.174Zm0-76.087 332.826-218.869H148.174L480 539.087ZM143.174 392.609v-72.391 511.564h1.174-1.174V392.609Z"/></svg>
