<svg xmlns="http://www.w3.org/2000/svg" height="48" fill="#848484" viewBox="0 96 960 960" width="48"><path d="M479.939 570.87q30.858 0 53.394-21.975 22.537-21.975 22.537-52.834 0-30.858-22.555-53.394-22.555-22.537-53.413-22.537-30.859 0-52.815 22.555-21.957 22.555-21.957 53.413 0 30.859 21.975 52.815 21.975 21.957 52.834 21.957ZM480 881.217q127.414-115.95 188.163-210.092 60.75-94.143 60.75-167.172 0-113.246-72.055-185.056-72.055-71.81-176.768-71.81-104.714 0-176.358 71.921-71.645 71.921-71.645 184.717 0 73.145 61.758 166.776Q355.602 764.133 480 881.217Zm0 109.566Q313.753 849.467 231.333 728.152q-82.42-121.314-82.42-224.226 0-155.494 99.767-247.754 99.767-92.259 231.066-92.259t231.82 92.311q100.521 92.311 100.521 247.892 0 102.789-82.92 224.082Q646.247 849.492 480 990.783ZM480 504Z"/></svg>
