<svg xmlns="http://www.w3.org/2000/svg" height="48" fill="#848484" viewBox="0 96 960 960" width="48"><path d="M265.348 1034.13q-32.71 0-57.942-24.84-25.232-24.833-25.232-58.334V201.044q0-33.501 25.232-58.338 25.232-24.836 57.942-24.836h429.304q32.71 0 57.942 24.836 25.232 24.837 25.232 58.338v749.912q0 33.501-25.232 58.334-25.232 24.84-57.942 24.84H265.348Zm0-172v88.826h429.304V862.13H265.348Zm214.901 75.435q12.621 0 21.555-9.299 8.935-9.298 8.935-22.087 0-12.788-9.184-21.723-9.184-8.935-21.804-8.935-12.621 0-21.555 9.381-8.935 9.381-8.935 22.292 0 12.671 9.184 21.521 9.184 8.85 21.804 8.85ZM265.348 798.174h429.304V293.391H265.348v504.783Zm0-568.739h429.304v-28.391H265.348v28.391Zm0 632.695v88.826-88.826Zm0-632.695v-28.391 28.391Z"/></svg>
