<svg xmlns="http://www.w3.org/2000/svg" viewBox="0 0 710.58 710.58"><defs><style>.cls-1{fill:#222;}.cls-2{fill:#00d8ff;}.cls-3{fill:none;stroke:#00d8ff;stroke-miterlimit:10;stroke-width:20px;}</style></defs><g id="Layer_2" data-name="Layer 2"><g id="Layer_2-2" data-name="Layer 2"><path class="cls-1" d="M0,0H710.58V710.58H0Z"/><circle class="cls-2" cx="354.74" cy="354.86" r="59.42"/><path class="cls-3" d="M354.74,234.05c79.77,0,153.88,11.45,209.74,30.68C631.8,287.9,673.19,323,673.19,354.84c0,33.15-43.86,70.48-116.15,94.41-54.65,18.11-126.58,27.58-202.3,27.58-77.64,0-151.14-8.88-206.42-27.77-69.93-23.9-112-61.7-112-94.22,0-31.56,39.53-66.41,105.9-89.54,56.08-19.54,132-31.25,212.57-31.25Z"/><path class="cls-3" d="M249.59,294.81c39.84-69.1,86.79-127.58,131.37-166.36,53.7-46.74,104.82-65,132.37-49.16C542,95.85,552.47,152.5,537.09,227.1c-11.62,56.4-39.35,123.42-77.19,189-38.79,67.25-83.2,126.5-127.17,165-55.63,48.64-109.44,66.23-137.6,50-27.33-15.77-37.78-67.41-24.68-136.47,11.07-58.4,38.88-130,79.14-199.79Z"/><path class="cls-3" d="M249.68,416.26c-40-69-67.17-138.91-78.52-196.9-13.67-69.86-4-123.3,23.52-139.22,28.69-16.61,83,2.65,139.91,53.21,43.07,38.24,87.27,95.73,125.21,161.28,38.9,67.2,68.06,135.26,79.39,192.54,14.36,72.5,2.73,127.9-25.41,144.18-27.31,15.81-77.27-.92-130.56-46.78C338.21,545.83,290,486,249.68,416.26Z"/></g></g></svg>